Avatar (2009)(Retail-original)(PAL)DVD9-5062kbps

PLOT

In the future, Jake, a paraplegic war veteran, is brought to another planet, Pandora, which is inhabited by the Na'vi, a humanoid race with their own language and culture. Those from Earth find themselves at odds with each other and the local culture.  Written by Giorgio_C

When his brother is killed in a robbery, paraplegic Marine Jake Sully decides to take his place in a mission on the distant world of Pandora. There he learns of greedy corporate figurehead Parker Selfridge's intentions of driving off the native humanoid "Na'vi" in order to mine for the precious material scattered throughout their rich woodland. In exchange for the spinal surgery that will fix his legs, Jake gathers intel for the cooperating military unit spearheaded by gung-ho Colonel Quaritch, while simultaneously attempting to infiltrate the Na'vi people with the use of an "avatar" identity. While Jake begins to bond with the native tribe and quickly falls in love with the beautiful alien Neytiri, the restless Colonel moves forward with his ruthless extermination tactics, forcing the soldier to take a stand - and fight back in an epic battle for the fate of Pandora. 

From the first 1gb fle

Format                           : MPEG-PS
File size                        : 1 024 MiB
Duration                         : 21mn 33s
Overall bit rate                 : 6 643 Kbps

Video
ID                               : 224 (0xE0)
Format                           : MPEG Video
Format version                   : Version 2
Format profile                   : Main@Main
Format settings, Matrix          : Default
Duration                         : 21mn 33s
Bit rate mode                    : Variable
Bit rate                         : 5 228 Kbps
Nominal bit rate                 : 9 800 Kbps
Width                            : 720 pixels
Height                           : 576 pixels
Display aspect ratio             : 16:9
Frame rate                       : 25.000 fps
Standard                         : Component
Colorimetry                      : 4:2:0
Scan type                        : Progressive
Scan order                       : Top Field First
Bits/(Pixel*Frame)               : 0.504
Stream size                      : 806 MiB (79%)

Audio #1
ID                               : 128 (0x80)
Format                           : AC-3
Format/Info                      : Audio Coding 3
Duration                         : 21mn 32s
Bit rate mode                    : Constant
Bit rate                         : 384 Kbps
Channel(s)                       : 6 channels
Channel positions                : Front: L C R, Surround: L R, LFE
Sampling rate                    : 48.0 KHz
Stream size                      : 59.2 MiB (6%)

Audio #2
ID                               : 129 (0x81)
Format                           : AC-3
Format/Info                      : Audio Coding 3
Duration                         : 21mn 32s
Bit rate mode                    : Constant
Bit rate                         : 384 Kbps
Channel(s)                       : 6 channels
Channel positions                : Front: L C R, Surround: L R, LFE
Sampling rate                    : 48.0 KHz
Stream size                      : 59.2 MiB (6%)

Audio #3
ID                               : 130 (0x82)
Format                           : AC-3
Format/Info                      : Audio Coding 3
Duration                         : 21mn 32s
Bit rate mode                    : Constant
Bit rate                         : 384 Kbps
Channel(s)                       : 6 channels
Channel positions                : Front: L C R, Surround: L R, LFE
Sampling rate                    : 48.0 KHz
Stream size                      : 59.2 MiB (6%)



Verenigde Staten
Science-Fiction / Avontuur
162 minuten

geregisseerd door James Cameron
met Sam Worthington, Sigourney Weaver en Zoe Saldana

Jake Sully is een verlamde oorlogsveteraan in de toekomst,
die met enkele anderen naar de maan Pandora wordt gebracht om deze te koloniseren voor de mensheid op Aarde.
Deze planeet wordt bewoond door de Na'vi, een mens-achtig ras met hun eigen taal en cultuur.
De Na'vi doen er alles aan zich te beschermen tegen de mensen.
Sully raakt betrokken bij hun vrijheidsstrijd, en wordt ook verliefd op één van hen...


INFO

Menu......: Yes
Audio.....: Eng,Hongaars,Turks DD5.1
Video.....: PAL-bitrate 5062Kbps
Subs......: Dutch, English, Turkish
Extra's...: Yes


MM:    http://www.moviemeter.nl/film/17552

IMDB:    http://www.imdb.com/title/tt0499549/

